<?xml version="1.0" encoding="utf-8"?>
<!-- Generator: Adobe Illustrator 16.0.4, SVG Export Plug-In . SVG Version: 6.00 Build 0)  -->
<!DOCTYPE svg PUBLIC "-//W3C//DTD SVG 1.1//EN" "http://www.w3.org/Graphics/SVG/1.1/DTD/svg11.dtd">
<svg version="1.1" id="Layer_1" xmlns="http://www.w3.org/2000/svg" xmlns:xlink="http://www.w3.org/1999/xlink" x="0px" y="0px"
	 width="72.032px" height="72.926px" viewBox="0 0 72.032 72.926" enable-background="new 0 0 72.032 72.926" xml:space="preserve">
<g>
	<defs>
		<rect id="SVGID_1_" x="-103.376" y="-214.573" width="792" height="612"/>
	</defs>
	<clipPath id="SVGID_2_">
		<use xlink:href="#SVGID_1_"  display="none" overflow="visible"/>
	</clipPath>
	<g display="none" clip-path="url(#SVGID_2_)">
		<text transform="matrix(1 0 0 1 195.6826 -164.1113)" display="inline"><tspan x="0" y="0" fill="#454545" font-family="'JockeyOne-Regular'" font-size="27">F</tspan><tspan x="12.906" y="0" fill="#454545" font-family="'JockeyOne-Regular'" font-size="27">r</tspan><tspan x="21.222" y="0" fill="#454545" font-family="'JockeyOne-Regular'" font-size="27">o</tspan><tspan x="36.045" y="0" fill="#454545" font-family="'JockeyOne-Regular'" font-size="27">n</tspan><tspan x="50.598" y="0" fill="#454545" font-family="'JockeyOne-Regular'" font-size="27">t  </tspan></text>
	</g>
	<g display="none" clip-path="url(#SVGID_2_)">

			<text transform="matrix(-6.123234e-17 -1 1 -6.123234e-17 226.5972 -137.1479)" display="inline" fill="#454545" font-family="'JockeyOne-Regular'" font-size="15.5072">End</text>
	</g>
	<g display="none" clip-path="url(#SVGID_2_)">
		<text transform="matrix(1 0 0 1 229.2939 -138.4683)" display="inline"><tspan x="0" y="0" fill="#454545" font-family="'JockeyOne-Regular'" font-size="27">D</tspan><tspan x="17.981" y="0" fill="#454545" font-family="'JockeyOne-Regular'" font-size="27">e</tspan><tspan x="31.374" y="0" fill="#454545" font-family="'JockeyOne-Regular'" font-size="27">v</tspan><tspan x="44.252" y="0" fill="#454545" font-family="'JockeyOne-Regular'" font-size="27">eloper</tspan></text>
	</g>
	<g display="none" clip-path="url(#SVGID_2_)">
		<defs>
			<rect id="SVGID_3_" x="-103.376" y="-214.573" width="792" height="612"/>
		</defs>
		<clipPath id="SVGID_4_" display="inline">
			<use xlink:href="#SVGID_3_"  overflow="visible"/>
		</clipPath>

			<line display="inline" clip-path="url(#SVGID_4_)" fill="none" stroke="#287CB7" stroke-width="1.52" stroke-miterlimit="10" x1="396.495" y1="-138.468" x2="338.794" y2="-138.468"/>
		<path display="inline" clip-path="url(#SVGID_4_)" fill="#C6C5C1" d="M161.51,111.199c0,3.131-2.539,5.67-5.67,5.67H-73.765
			c-3.131,0-5.67-2.539-5.67-5.67V-30.532c0-3.131,2.539-5.67,5.67-5.67H155.84c3.131,0,5.67,2.539,5.67,5.67V111.199z"/>
	</g>
	<g display="none" clip-path="url(#SVGID_2_)">
		<text transform="matrix(1 0 0 1 -30.0742 88.2402)" display="inline"><tspan x="0" y="0" fill="#454545" font-family="'FormationSansRegular-Regular'" font-size="12.0799">JUA</tspan><tspan x="22.36" y="0" fill="#454545" font-family="'FormationSansRegular-Regular'" font-size="12.0799">N</tspan><tspan x="31.214" y="0" fill="#454545" font-family="'FormationSansRegular-Regular'" font-size="12.0799"> D</tspan><tspan x="43.608" y="0" fill="#454545" font-family="'FormationSansRegular-Regular'" font-size="12.0799">A</tspan><tspan x="50.554" y="0" fill="#454545" font-family="'FormationSansRegular-Regular'" font-size="12.0799">VID A</tspan><tspan x="82.65" y="0" fill="#454545" font-family="'FormationSansRegular-Regular'" font-size="12.0799">N</tspan><tspan x="91.504" y="0" fill="#454545" font-family="'FormationSansRegular-Regular'" font-size="12.0799">D</tspan><tspan x="100.443" y="0" fill="#454545" font-family="'FormationSansRegular-Regular'" font-size="12.0799">R</tspan><tspan x="107.848" y="0" fill="#454545" font-family="'FormationSansRegular-Regular'" font-size="12.0799">AD</tspan><tspan x="125.074" y="0" fill="#454545" font-family="'FormationSansRegular-Regular'" font-size="12.0799">E</tspan></text>
	</g>
	<g clip-path="url(#SVGID_2_)">
		<defs>
			<rect id="SVGID_5_" x="-103.376" y="-214.573" width="792" height="612"/>
		</defs>
		<clipPath id="SVGID_6_">
			<use xlink:href="#SVGID_5_"  display="none" overflow="visible"/>
		</clipPath>
		<g display="none" opacity="0.65" clip-path="url(#SVGID_6_)">
			<g display="inline">
				<defs>
					<rect id="SVGID_7_" x="563.615" y="227.94" width="29.323" height="36.57"/>
				</defs>
				<clipPath id="SVGID_8_">
					<use xlink:href="#SVGID_7_"  overflow="visible"/>
				</clipPath>
				<path clip-path="url(#SVGID_8_)" fill="#454545" d="M592.939,250.017c-2.807-3.359-14.562-21.237-14.562-21.237
					s-0.245-0.772-1.864-0.772h-11.736c0,0-1.736-0.422-0.963,0.867c0.772,1.288,20.793,34.656,20.793,34.656
					s0.373,0.898,1.35,0.898l6.982,0.082V250.017z"/>
			</g>
		</g>
		<path display="none" clip-path="url(#SVGID_6_)" fill="#262626" d="M607.904,194.166v68.882c0,2.547-1.549,2-1.549,2
			s-9.5,0.118-11.332,0c-1.834-0.119-1.688-1.382-1.688-1.382v-16.702v-53.891c0-0.742,0.877-0.869,0.877-0.869h12.727
			C606.939,192.204,607.904,191.499,607.904,194.166"/>
		<path display="none" clip-path="url(#SVGID_6_)" fill="#C6C5C1" d="M675.187-52.625c0,3.131-2.539,5.67-5.67,5.67H439.911
			c-3.131,0-5.67-2.539-5.67-5.67v-141.731c0-3.131,2.539-5.67,5.67-5.67h229.605c3.131,0,5.67,2.539,5.67,5.67V-52.625z"/>
	</g>
	<g display="none" clip-path="url(#SVGID_2_)">

			<text transform="matrix(1 0 0 1 551.9336 -107.9688)" display="inline" fill="#454545" font-family="'Lato-Regular'" font-size="10">+57  317 642 0844          </text>
	</g>
	<g display="none" clip-path="url(#SVGID_2_)">
		<text transform="matrix(1 0 0 1 507.3535 -68.439)" display="inline"><tspan x="0" y="0" fill="#454545" font-family="'Lato-Regular'" font-size="10">juand</tspan><tspan x="23.95" y="0" fill="#454545" font-family="'Lato-Regular'" font-size="10">a</tspan><tspan x="28.67" y="0" fill="#454545" font-family="'Lato-Regular'" font-size="10">vidand</tspan><tspan x="57.47" y="0" fill="#454545" font-family="'Lato-Regular'" font-size="10">r</tspan><tspan x="60.659" y="0" fill="#454545" font-family="'Lato-Regular'" font-size="10">ade@gmail.</tspan><tspan x="109.019" y="0" fill="#454545" font-family="'Lato-Regular'" font-size="10">c</tspan><tspan x="113.408" y="0" fill="#454545" font-family="'Lato-Regular'" font-size="10">om      </tspan></text>
	</g>
	<g display="none" clip-path="url(#SVGID_2_)">
		<text transform="matrix(1 0 0 1 547.7734 -88.9785)" display="inline"><tspan x="0" y="0" fill="#454545" font-family="'Lato-Regular'" font-size="10">ww</tspan><tspan x="14.72" y="0" fill="#454545" font-family="'Lato-Regular'" font-size="10">w</tspan><tspan x="21.87" y="0" fill="#454545" font-family="'Lato-Regular'" font-size="10">.jdand</tspan><tspan x="48.02" y="0" fill="#454545" font-family="'Lato-Regular'" font-size="10">r</tspan><tspan x="51.209" y="0" fill="#454545" font-family="'Lato-Regular'" font-size="10">ade.</tspan><tspan x="68.749" y="0" fill="#454545" font-family="'Lato-Regular'" font-size="10">c</tspan><tspan x="73.139" y="0" fill="#454545" font-family="'Lato-Regular'" font-size="10">om      </tspan></text>
	</g>
	<g display="none" clip-path="url(#SVGID_2_)">
		<text transform="matrix(1 0 0 1 453.0166 -161.2432)" display="inline"><tspan x="0" y="0" fill="#454545" font-family="'JockeyOne-Regular'" font-size="27">F</tspan><tspan x="12.906" y="0" fill="#454545" font-family="'JockeyOne-Regular'" font-size="27">r</tspan><tspan x="21.222" y="0" fill="#454545" font-family="'JockeyOne-Regular'" font-size="27">o</tspan><tspan x="36.045" y="0" fill="#454545" font-family="'JockeyOne-Regular'" font-size="27">n</tspan><tspan x="50.625" y="0" fill="#454545" font-family="'JockeyOne-Regular'" font-size="27">t  </tspan></text>
	</g>
	<g display="none" clip-path="url(#SVGID_2_)">

			<text transform="matrix(-6.123234e-17 -1 1 -6.123234e-17 483.9307 -134.2803)" display="inline" fill="#454545" font-family="'JockeyOne-Regular'" font-size="15.5072">End</text>
	</g>
	<g display="none" clip-path="url(#SVGID_2_)">
		<text transform="matrix(1 0 0 1 486.6279 -135.6001)" display="inline"><tspan x="0" y="0" fill="#454545" font-family="'JockeyOne-Regular'" font-size="27">D</tspan><tspan x="17.981" y="0" fill="#454545" font-family="'JockeyOne-Regular'" font-size="27">e</tspan><tspan x="31.373" y="0" fill="#454545" font-family="'JockeyOne-Regular'" font-size="27">v</tspan><tspan x="44.252" y="0" fill="#454545" font-family="'JockeyOne-Regular'" font-size="27">eloper</tspan></text>
	</g>
	<g display="none" clip-path="url(#SVGID_2_)">
		<defs>
			<rect id="SVGID_9_" x="-103.376" y="-214.573" width="792" height="612"/>
		</defs>
		<clipPath id="SVGID_10_" display="inline">
			<use xlink:href="#SVGID_9_"  overflow="visible"/>
		</clipPath>

			<line display="inline" clip-path="url(#SVGID_10_)" fill="none" stroke="#287CB7" stroke-width="1.52" stroke-miterlimit="10" x1="653.829" y1="-135.6" x2="596.128" y2="-135.6"/>
		<path display="inline" clip-path="url(#SVGID_10_)" fill-rule="evenodd" clip-rule="evenodd" fill="#454545" d="M645.993-117.792
			c0.686,1.699,0.883,3.972-0.903,4.51c0.793,1.913,2.327,3.085,3.908,4.209c0.956-1.447,2.871-1.802,4.81-0.902
			c-0.08,1.02,0.233,2.437-0.3,3.006c-6.614-0.4-10.121-3.908-10.521-10.522C643.555-118.024,644.972-117.71,645.993-117.792"/>

			<line display="inline" clip-path="url(#SVGID_10_)" fill="none" stroke="#454646" stroke-width="1.269" stroke-miterlimit="10" x1="645.758" y1="-91.934" x2="651.621" y2="-91.934"/>

			<path display="inline" clip-path="url(#SVGID_10_)" fill="none" stroke="#454646" stroke-width="1.269" stroke-miterlimit="10" d="
			M647.935-94.955l-3.205,0.06c0,0-2.628,0.303-2.479,2.961c0.142,2.479,1.634,2.783,2.237,2.903c0.604,0.121,3.446,0,3.446,0"/>

			<path display="inline" clip-path="url(#SVGID_10_)" fill="none" stroke="#454646" stroke-width="1.269" stroke-miterlimit="10" d="
			M649.14-94.955l3.204,0.06c0,0,2.629,0.303,2.479,2.961c-0.142,2.479-1.633,2.783-2.237,2.903c-0.604,0.121-3.445,0-3.445,0"/>
		<path display="inline" clip-path="url(#SVGID_10_)" fill-rule="evenodd" clip-rule="evenodd" fill="#454545" d="M653.269-75.703
			c0.443,2.111,0.443,5.973,0,8.085c-2.813,0.445-7.427,0.445-10.244,0c-0.362-2.076-0.604-6.23,0.137-8.085
			C645.925-76.156,650.504-76.144,653.269-75.703 M643.835-73.817c1.499,0.881,2.861,1.9,4.448,2.695
			c1.287-1.002,2.803-1.779,4.177-2.695c-0.082-0.322,0.17-0.979-0.135-1.078c-1.35,0.984-2.789,1.883-4.312,2.695
			c-1.288-1.004-2.803-1.779-4.178-2.695V-73.817z"/>
		<path display="inline" clip-path="url(#SVGID_10_)" fill="#454545" d="M161.51,288.376c0,3.131-2.539,5.67-5.67,5.67H-73.765
			c-3.131,0-5.67-2.539-5.67-5.67V146.644c0-3.131,2.539-5.67,5.67-5.67H155.84c3.131,0,5.67,2.539,5.67,5.67V288.376z"/>
	</g>
	<g display="none" clip-path="url(#SVGID_2_)">
		<text transform="matrix(1 0 0 1 -30.0747 265.417)" display="inline"><tspan x="0" y="0" fill="#C6C5C1" font-family="'FormationSansRegular-Regular'" font-size="12.0799">JUA</tspan><tspan x="22.36" y="0" fill="#C6C5C1" font-family="'FormationSansRegular-Regular'" font-size="12.0799">N</tspan><tspan x="31.214" y="0" fill="#C6C5C1" font-family="'FormationSansRegular-Regular'" font-size="12.0799"> D</tspan><tspan x="43.608" y="0" fill="#C6C5C1" font-family="'FormationSansRegular-Regular'" font-size="12.0799">A</tspan><tspan x="50.554" y="0" fill="#C6C5C1" font-family="'FormationSansRegular-Regular'" font-size="12.0799">VID A</tspan><tspan x="82.65" y="0" fill="#C6C5C1" font-family="'FormationSansRegular-Regular'" font-size="12.0799">N</tspan><tspan x="91.504" y="0" fill="#C6C5C1" font-family="'FormationSansRegular-Regular'" font-size="12.0799">D</tspan><tspan x="100.443" y="0" fill="#C6C5C1" font-family="'FormationSansRegular-Regular'" font-size="12.0799">R</tspan><tspan x="107.848" y="0" fill="#C6C5C1" font-family="'FormationSansRegular-Regular'" font-size="12.0799">AD</tspan><tspan x="125.074" y="0" fill="#C6C5C1" font-family="'FormationSansRegular-Regular'" font-size="12.0799">E</tspan></text>
	</g>
	<g display="none" clip-path="url(#SVGID_2_)">
		<defs>
			<rect id="SVGID_11_" x="-103.376" y="-214.573" width="792" height="612"/>
		</defs>
		<clipPath id="SVGID_12_" display="inline">
			<use xlink:href="#SVGID_11_"  overflow="visible"/>
		</clipPath>
		<path display="inline" clip-path="url(#SVGID_12_)" fill="#C6C5C1" d="M418.187,288.376c0,3.131-2.539,5.67-5.67,5.67H182.911
			c-3.131,0-5.67-2.539-5.67-5.67v-141.73c0-3.131,2.539-5.67,5.67-5.67h229.606c3.131,0,5.67,2.539,5.67,5.67V288.376z"/>
	</g>
	<g display="none" clip-path="url(#SVGID_2_)">

			<text transform="matrix(1 0 0 1 294.9326 233.0322)" display="inline" fill="#454545" font-family="'Lato-Regular'" font-size="10">+57  317 642 0844          </text>
	</g>
	<g display="none" clip-path="url(#SVGID_2_)">
		<text transform="matrix(1 0 0 1 250.3525 272.5625)" display="inline"><tspan x="0" y="0" fill="#454545" font-family="'Lato-Regular'" font-size="10">juand</tspan><tspan x="23.95" y="0" fill="#454545" font-family="'Lato-Regular'" font-size="10">a</tspan><tspan x="28.67" y="0" fill="#454545" font-family="'Lato-Regular'" font-size="10">vidand</tspan><tspan x="57.47" y="0" fill="#454545" font-family="'Lato-Regular'" font-size="10">r</tspan><tspan x="60.659" y="0" fill="#454545" font-family="'Lato-Regular'" font-size="10">ade@gmail.</tspan><tspan x="109.019" y="0" fill="#454545" font-family="'Lato-Regular'" font-size="10">c</tspan><tspan x="113.408" y="0" fill="#454545" font-family="'Lato-Regular'" font-size="10">om      </tspan></text>
	</g>
	<g display="none" clip-path="url(#SVGID_2_)">
		<text transform="matrix(1 0 0 1 290.7725 252.0225)" display="inline"><tspan x="0" y="0" fill="#454545" font-family="'Lato-Regular'" font-size="10">ww</tspan><tspan x="14.72" y="0" fill="#454545" font-family="'Lato-Regular'" font-size="10">w</tspan><tspan x="21.87" y="0" fill="#454545" font-family="'Lato-Regular'" font-size="10">.jdand</tspan><tspan x="48.02" y="0" fill="#454545" font-family="'Lato-Regular'" font-size="10">r</tspan><tspan x="51.22" y="0" fill="#454545" font-family="'Lato-Regular'" font-size="10">ade.</tspan><tspan x="68.759" y="0" fill="#454545" font-family="'Lato-Regular'" font-size="10">c</tspan><tspan x="73.149" y="0" fill="#454545" font-family="'Lato-Regular'" font-size="10">om      </tspan></text>
	</g>
	<g display="none" clip-path="url(#SVGID_2_)">
		<text transform="matrix(1 0 0 1 196.0161 179.7568)" display="inline"><tspan x="0" y="0" fill="#454545" font-family="'JockeyOne-Regular'" font-size="27">F</tspan><tspan x="12.906" y="0" fill="#454545" font-family="'JockeyOne-Regular'" font-size="27">r</tspan><tspan x="21.222" y="0" fill="#454545" font-family="'JockeyOne-Regular'" font-size="27">o</tspan><tspan x="36.045" y="0" fill="#454545" font-family="'JockeyOne-Regular'" font-size="27">n</tspan><tspan x="50.598" y="0" fill="#454545" font-family="'JockeyOne-Regular'" font-size="27">t  </tspan></text>
	</g>
	<g display="none" clip-path="url(#SVGID_2_)">

			<text transform="matrix(-6.123234e-17 -1 1 -6.123234e-17 226.9307 206.7178)" display="inline" fill="#454545" font-family="'JockeyOne-Regular'" font-size="15.5072">End</text>
	</g>
	<g display="none" clip-path="url(#SVGID_2_)">
		<text transform="matrix(1 0 0 1 229.627 205.3994)" display="inline"><tspan x="0" y="0" fill="#454545" font-family="'JockeyOne-Regular'" font-size="27">D</tspan><tspan x="17.981" y="0" fill="#454545" font-family="'JockeyOne-Regular'" font-size="27">e</tspan><tspan x="31.374" y="0" fill="#454545" font-family="'JockeyOne-Regular'" font-size="27">v</tspan><tspan x="44.252" y="0" fill="#454545" font-family="'JockeyOne-Regular'" font-size="27">eloper</tspan></text>
	</g>
	<g clip-path="url(#SVGID_2_)">
		<defs>
			<rect id="SVGID_13_" x="-103.376" y="-214.573" width="792" height="612"/>
		</defs>
		<clipPath id="SVGID_14_">
			<use xlink:href="#SVGID_13_"  display="none" overflow="visible"/>
		</clipPath>

			<line display="none" clip-path="url(#SVGID_14_)" fill="none" stroke="#287CB7" stroke-width="1.52" stroke-miterlimit="10" x1="396.829" y1="205.4" x2="339.128" y2="205.4"/>
		<path display="none" clip-path="url(#SVGID_14_)" fill-rule="evenodd" clip-rule="evenodd" fill="#454545" d="M388.993,223.208
			c0.686,1.699,0.883,3.972-0.904,4.51c0.793,1.914,2.328,3.085,3.908,4.209c0.957-1.448,2.871-1.802,4.811-0.902
			c-0.08,1.021,0.232,2.438-0.301,3.007c-6.613-0.4-10.121-3.908-10.521-10.522C386.554,222.976,387.972,223.29,388.993,223.208"/>

			<line display="none" clip-path="url(#SVGID_14_)" fill="none" stroke="#454646" stroke-width="1.269" stroke-miterlimit="10" x1="388.757" y1="249.067" x2="394.62" y2="249.067"/>
		<path display="none" clip-path="url(#SVGID_14_)" fill="none" stroke="#454646" stroke-width="1.269" stroke-miterlimit="10" d="
			M390.935,246.046l-3.205,0.059c0,0-2.629,0.305-2.479,2.962c0.141,2.479,1.633,2.782,2.236,2.903c0.605,0.121,3.447,0,3.447,0"/>
		<path display="none" clip-path="url(#SVGID_14_)" fill="none" stroke="#454646" stroke-width="1.269" stroke-miterlimit="10" d="
			M392.14,246.046l3.203,0.059c0,0,2.629,0.305,2.479,2.962c-0.141,2.479-1.633,2.782-2.236,2.903s-3.445,0-3.445,0"/>
		<path display="none" clip-path="url(#SVGID_14_)" fill-rule="evenodd" clip-rule="evenodd" fill="#454545" d="M396.269,265.297
			c0.443,2.111,0.443,5.974,0,8.085c-2.814,0.445-7.428,0.445-10.244,0c-0.363-2.076-0.605-6.229,0.137-8.085
			C388.925,264.844,393.503,264.857,396.269,265.297 M386.835,267.184c1.498,0.881,2.861,1.9,4.447,2.695
			c1.287-1.002,2.803-1.779,4.178-2.695c-0.082-0.322,0.17-0.979-0.135-1.078c-1.35,0.984-2.789,1.883-4.312,2.695
			c-1.289-1.004-2.803-1.779-4.178-2.695V267.184z"/>
		<path display="none" clip-path="url(#SVGID_14_)" fill="#C6C5C1" d="M31.426,231.806c-2.807-3.359-14.561-21.237-14.561-21.237
			s-0.246-0.772-1.865-0.772H3.264c0,0-1.736-0.422-0.963,0.867s20.793,34.656,20.793,34.656s0.373,0.898,1.35,0.898l6.982,0.082
			V231.806z"/>
		<path display="none" clip-path="url(#SVGID_14_)" fill="#262626" d="M47.391,175.955v68.882c0,2.547-1.549,2-1.549,2
			s-9.5,0.118-11.332,0c-1.834-0.119-1.687-1.382-1.687-1.382v-16.702v-53.891c0-0.742,0.877-0.869,0.877-0.869h12.726
			C46.426,173.993,47.391,173.288,47.391,175.955"/>
		<path display="none" clip-path="url(#SVGID_14_)" fill="#287CB7" d="M49.045,175.536v10.582c0,0-0.215,1.679,0.852,3.277
			C50.961,190.994,63,209.052,63,209.052s0.565,0.824,0.545,1.066c-0.02,0.241-0.293,0.752-0.59,1.197
			c-0.297,0.445-12.01,18.014-12.01,18.014l-1.742,2.768c0,0-0.221,0.548-0.224,0.992c-0.004,0.445-0.016,3.404-0.016,3.404
			l0.016,8.041v0.792c0,0-0.196,1.487,1.029,1.487c1.226-0.001,5.308-0.002,5.308-0.002s0.606,0.104,0.946-0.137
			c0.338-0.242,0.777-0.765,1.09-1.285c0.312-0.522,2.955-4.928,2.955-4.928l17.289-28.814c0,0,0.849-1.102,0-2.519
			c-0.852-1.417-7.315-12.189-7.315-12.189L57.44,175.536l-0.577-0.961c0,0-0.58-0.608-1.918-0.608h-3.773l-1-0.001
			C50.172,173.966,48.982,173.892,49.045,175.536"/>
		<g display="none" opacity="0.65" clip-path="url(#SVGID_14_)">
			<g display="inline">
				<defs>
					<rect id="SVGID_15_" x="456.709" y="230.362" width="29.323" height="36.57"/>
				</defs>
				<clipPath id="SVGID_16_">
					<use xlink:href="#SVGID_15_"  overflow="visible"/>
				</clipPath>
				<path clip-path="url(#SVGID_16_)" fill="#454545" d="M486.032,252.438c-2.807-3.359-14.561-21.236-14.561-21.236
					s-0.246-0.773-1.865-0.773H457.87c0,0-1.736-0.422-0.963,0.867s20.793,34.656,20.793,34.656s0.373,0.898,1.35,0.898l6.982,0.082
					V252.438z"/>
			</g>
		</g>
		<g display="none" opacity="0.75" clip-path="url(#SVGID_14_)">
			<g display="inline">
				<defs>
					<rect id="SVGID_17_" x="487.426" y="194.542" width="14.571" height="72.98"/>
				</defs>
				<clipPath id="SVGID_18_">
					<use xlink:href="#SVGID_17_"  overflow="visible"/>
				</clipPath>
				<path clip-path="url(#SVGID_18_)" fill="#454545" d="M501.997,196.588v68.882c0,2.547-1.549,2-1.549,2s-9.5,0.119-11.332,0
					c-1.834-0.119-1.688-1.381-1.688-1.381v-16.703v-53.891c0-0.742,0.877-0.869,0.877-0.869h12.727
					C501.032,194.626,501.997,193.921,501.997,196.588"/>
			</g>
		</g>
		<path display="none" clip-path="url(#SVGID_14_)" fill="#287CB7" d="M503.651,196.169v10.582c0,0-0.215,1.679,0.852,3.277
			c1.064,1.599,13.104,19.656,13.104,19.656s0.564,0.824,0.545,1.066c-0.021,0.242-0.293,0.752-0.59,1.197
			s-12.01,18.014-12.01,18.014l-1.742,2.768c0,0-0.222,0.549-0.225,0.992c-0.004,0.445-0.016,3.404-0.016,3.404l0.016,8.041v0.793
			c0,0-0.195,1.486,1.029,1.486c1.226,0,5.308-0.002,5.308-0.002s0.606,0.104,0.946-0.137c0.338-0.242,0.777-0.764,1.09-1.284
			c0.312-0.522,2.955-4.929,2.955-4.929l17.289-28.814c0,0,0.85-1.102,0-2.518c-0.852-1.418-7.314-12.189-7.314-12.189
			l-12.842-21.404l-0.576-0.961c0,0-0.58-0.608-1.918-0.608h-3.773l-1-0.001C504.778,194.599,503.588,194.524,503.651,196.169"/>
		<path display="none" clip-path="url(#SVGID_14_)" fill="#454545" d="M418.187,111.199c0,3.131-2.539,5.67-5.67,5.67H182.911
			c-3.131,0-5.67-2.539-5.67-5.67V-30.532c0-3.131,2.539-5.67,5.67-5.67h229.606c3.131,0,5.67,2.539,5.67,5.67V111.199z"/>
	</g>
	<g display="none" clip-path="url(#SVGID_2_)">

			<text transform="matrix(1 0 0 1 294.9326 55.8545)" display="inline" fill="#C6C5C1" font-family="'Lato-Regular'" font-size="10">+57  317 642 0844          </text>
	</g>
	<g display="none" clip-path="url(#SVGID_2_)">
		<text transform="matrix(1 0 0 1 250.3525 95.3848)" display="inline"><tspan x="0" y="0" fill="#C6C5C1" font-family="'Lato-Regular'" font-size="10">juand</tspan><tspan x="23.95" y="0" fill="#C6C5C1" font-family="'Lato-Regular'" font-size="10">a</tspan><tspan x="28.67" y="0" fill="#C6C5C1" font-family="'Lato-Regular'" font-size="10">vidand</tspan><tspan x="57.47" y="0" fill="#C6C5C1" font-family="'Lato-Regular'" font-size="10">r</tspan><tspan x="60.659" y="0" fill="#C6C5C1" font-family="'Lato-Regular'" font-size="10">ade@gmail.</tspan><tspan x="109.019" y="0" fill="#C6C5C1" font-family="'Lato-Regular'" font-size="10">c</tspan><tspan x="113.408" y="0" fill="#C6C5C1" font-family="'Lato-Regular'" font-size="10">om      </tspan></text>
	</g>
	<g display="none" clip-path="url(#SVGID_2_)">
		<text transform="matrix(1 0 0 1 290.7725 74.8442)" display="inline"><tspan x="0" y="0" fill="#C6C5C1" font-family="'Lato-Regular'" font-size="10">ww</tspan><tspan x="14.72" y="0" fill="#C6C5C1" font-family="'Lato-Regular'" font-size="10">w</tspan><tspan x="21.87" y="0" fill="#C6C5C1" font-family="'Lato-Regular'" font-size="10">.jdand</tspan><tspan x="48.02" y="0" fill="#C6C5C1" font-family="'Lato-Regular'" font-size="10">r</tspan><tspan x="51.22" y="0" fill="#C6C5C1" font-family="'Lato-Regular'" font-size="10">ade.</tspan><tspan x="68.759" y="0" fill="#C6C5C1" font-family="'Lato-Regular'" font-size="10">c</tspan><tspan x="73.149" y="0" fill="#C6C5C1" font-family="'Lato-Regular'" font-size="10">om      </tspan></text>
	</g>
	<g display="none" clip-path="url(#SVGID_2_)">
		<text transform="matrix(1 0 0 1 196.0161 2.5791)" display="inline"><tspan x="0" y="0" fill="#C6C5C1" font-family="'JockeyOne-Regular'" font-size="27">F</tspan><tspan x="12.906" y="0" fill="#C6C5C1" font-family="'JockeyOne-Regular'" font-size="27">r</tspan><tspan x="21.222" y="0" fill="#C6C5C1" font-family="'JockeyOne-Regular'" font-size="27">o</tspan><tspan x="36.045" y="0" fill="#C6C5C1" font-family="'JockeyOne-Regular'" font-size="27">n</tspan><tspan x="50.598" y="0" fill="#C6C5C1" font-family="'JockeyOne-Regular'" font-size="27">t  </tspan></text>
	</g>
	<g display="none" clip-path="url(#SVGID_2_)">

			<text transform="matrix(-6.123234e-17 -1 1 -6.123234e-17 226.9307 29.543)" display="inline" fill="#C6C5C1" font-family="'JockeyOne-Regular'" font-size="15.5072">End</text>
	</g>
	<g display="none" clip-path="url(#SVGID_2_)">
		<text transform="matrix(1 0 0 1 229.627 28.2222)" display="inline"><tspan x="0" y="0" fill="#C6C5C1" font-family="'JockeyOne-Regular'" font-size="27">D</tspan><tspan x="17.981" y="0" fill="#C6C5C1" font-family="'JockeyOne-Regular'" font-size="27">e</tspan><tspan x="31.374" y="0" fill="#C6C5C1" font-family="'JockeyOne-Regular'" font-size="27">v</tspan><tspan x="44.252" y="0" fill="#C6C5C1" font-family="'JockeyOne-Regular'" font-size="27">eloper</tspan></text>
	</g>
	<g display="none" clip-path="url(#SVGID_2_)">
		<defs>
			<rect id="SVGID_19_" x="-103.376" y="-214.573" width="792" height="612"/>
		</defs>
		<clipPath id="SVGID_20_" display="inline">
			<use xlink:href="#SVGID_19_"  overflow="visible"/>
		</clipPath>

			<line display="inline" clip-path="url(#SVGID_20_)" fill="none" stroke="#287CB7" stroke-width="1.52" stroke-miterlimit="10" x1="396.829" y1="28.223" x2="339.128" y2="28.223"/>
		<path display="inline" clip-path="url(#SVGID_20_)" fill-rule="evenodd" clip-rule="evenodd" fill="#C6C5C1" d="M388.993,46.031
			c0.686,1.699,0.883,3.972-0.904,4.51c0.793,1.913,2.328,3.085,3.908,4.209c0.957-1.447,2.871-1.802,4.811-0.902
			c-0.08,1.02,0.232,2.437-0.301,3.006c-6.613-0.4-10.121-3.908-10.521-10.522C386.554,45.799,387.972,46.113,388.993,46.031"/>

			<line display="inline" clip-path="url(#SVGID_20_)" fill="none" stroke="#C6C5C1" stroke-width="1.269" stroke-miterlimit="10" x1="388.757" y1="71.89" x2="394.62" y2="71.89"/>

			<path display="inline" clip-path="url(#SVGID_20_)" fill="none" stroke="#C6C5C1" stroke-width="1.269" stroke-miterlimit="10" d="
			M390.935,68.868l-3.205,0.06c0,0-2.629,0.303-2.479,2.961c0.141,2.479,1.633,2.783,2.236,2.903c0.605,0.121,3.447,0,3.447,0"/>

			<path display="inline" clip-path="url(#SVGID_20_)" fill="none" stroke="#C6C5C1" stroke-width="1.269" stroke-miterlimit="10" d="
			M392.14,68.868l3.203,0.06c0,0,2.629,0.303,2.479,2.961c-0.141,2.479-1.633,2.783-2.236,2.903c-0.604,0.121-3.445,0-3.445,0"/>
		<path display="inline" clip-path="url(#SVGID_20_)" fill-rule="evenodd" clip-rule="evenodd" fill="#C6C5C1" d="M397.269,88.12
			c0.443,2.111,0.443,5.974,0,8.085c-2.814,0.446-7.428,0.446-10.244,0c-0.363-2.076-0.605-6.23,0.137-8.085
			C389.925,87.667,394.503,87.68,397.269,88.12 M387.835,90.006c1.498,0.881,2.861,1.9,4.447,2.695
			c1.287-1.002,2.803-1.779,4.178-2.695c-0.082-0.322,0.17-0.979-0.135-1.078c-1.35,0.984-2.789,1.883-4.312,2.695
			c-1.289-1.004-2.803-1.779-4.178-2.695V90.006z"/>
	</g>
</g>
<g opacity="0.65">
	<g>
		<defs>
			<rect id="SVGID_21_" x="-0.198" width="43.385" height="72.843"/>
		</defs>
		<clipPath id="SVGID_22_">
			<use xlink:href="#SVGID_21_"  overflow="visible"/>
		</clipPath>
		<path clip-path="url(#SVGID_22_)" fill="#454545" d="M43.187,72.843H22.143c-0.977,0-1.348-0.898-1.348-0.898
			S0.775,38.578,0,37.289C-0.772,36,0.965,36.422,0.965,36.422h11.736c1.619,0,1.864,0.772,1.864,0.772s9.837,14.755,12.266,18.398
			c2.427,3.642,1.787-0.832,1.787-0.832V0.868C28.618,0.127,29.496,0,29.496,0s11.938,0.079,13.691,0.079V72.843z"/>
	</g>
</g>
<path fill="#287CB7" d="M49.915,72.923c0,0,0.685,0.098,1.363-1.034c0.678-1.13,20.754-34.591,20.754-34.591s0.425-0.888,0-1.595
	C71.608,34.998,51.023,0.688,51.023,0.688S50.86,0.08,49.105,0.08H29.681c0,0-0.876,0.126-0.876,0.868v53.892v17.276
	c0,0,0.068,0.809,0.741,0.809C30.221,72.924,49.915,72.923,49.915,72.923"/>
<path fill="#C6C5C1" d="M43.322,16.625v40.52c0,0,0.023,0.936,0.646,0c0.624-0.935,13.146-19.718,13.146-19.718l0.491-0.735
	c0,0,0.287-0.428-0.117-1.035c-0.405-0.607-13.433-20.15-13.433-20.15s-0.733-0.866-0.733,0V16.625z"/>
</svg>
